<?xml version="1.0" encoding="UTF-8"?>
<!DOCTYPE svg PUBLIC "-//W3C//DTD SVG 1.1//EN" "http://www.w3.org/Graphics/SVG/1.1/DTD/svg11.dtd">
<!-- Creator: CorelDRAW -->
<svg xmlns="http://www.w3.org/2000/svg" xml:space="preserve" width="8.66666in" height="8.66666in" style="shape-rendering:geometricPrecision; text-rendering:geometricPrecision; image-rendering:optimizeQuality; fill-rule:evenodd; clip-rule:evenodd"
viewBox="0 0 8.66666 8.66666"
 xmlns:xlink="http://www.w3.org/1999/xlink">
 <defs>
  <style type="text/css">
   <![CDATA[
    .fil0 {fill:black}
    .fil1 {fill:white}
    .fil2 {fill:white;fill-rule:nonzero}
   ]]>
  </style>
 </defs>
 <g id="Layer_x0020_1">
  <metadata id="CorelCorpID_0Corel-Layer"/>
  <circle class="fil0" cx="4.33333" cy="4.33333" r="4.33333"/>
  <g id="_275479752">
   <path id="_275480112" class="fil1" d="M2.08926 5.58843l0 -1.57104c0,-0.59663 0.237551,-1.16348 0.659067,-1.585 0.421516,-0.421512 0.988362,-0.659063 1.585,-0.659063 0.596634,0 1.16348,0.237551 1.585,0.659063 0.421516,0.421512 0.659067,0.988366 0.659067,1.585l0 1.57104c0,0.0856299 -0.0694724,0.155098 -0.155102,0.155098 -0.0856339,0 -0.155102,-0.0694685 -0.155102,-0.155098l0 -1.57104c0,-0.514244 -0.204929,-1.00239 -0.568201,-1.36566 -0.363268,-0.363272 -0.851417,-0.568197 -1.36566,-0.568197 -0.514244,0 -1.00239,0.204929 -1.36566,0.568197 -0.363272,0.363268 -0.568201,0.851413 -0.568201,1.36566l0 1.57104c0,0.0856299 -0.0694685,0.155098 -0.155102,0.155098 -0.0856299,0 -0.155102,-0.0694685 -0.155102,-0.155098z"/>
   <path id="_275480040" class="fil2" d="M2.43199 4.50956l0.246535 0c0.0943307,0 0.180039,0.0385394 0.242118,0.100618 0.0620748,0.0620748 0.100614,0.14778 0.100614,0.24211l0 0.954366c0,0.0943307 -0.0385354,0.180035 -0.100614,0.242114 -0.0620787,0.0620748 -0.147783,0.10061 -0.242118,0.10061l-0.246535 0c-0.0943307,0 -0.180035,-0.0385354 -0.24211,-0.10061 -0.0620787,-0.0620787 -0.100618,-0.147783 -0.100618,-0.242114l0 -0.954366c0,-0.0943307 0.0385394,-0.180035 0.100618,-0.24211 0.0620748,-0.0620748 0.14778,-0.100618 0.24211,-0.100618z"/>
   <path id="_275479776" class="fil2" d="M5.98812 4.50956l0.246539 0c0.0943307,0 0.180039,0.0385394 0.242114,0.100618 0.0620748,0.0620748 0.100618,0.14778 0.100618,0.24211l0 0.954366c0,0.0943307 -0.0385394,0.180035 -0.100618,0.242114 -0.0620748,0.0620748 -0.14778,0.10061 -0.242114,0.10061l-0.246539 0c-0.0943307,0 -0.180035,-0.0385354 -0.24211,-0.100614 -0.0620787,-0.0620787 -0.100618,-0.14778 -0.100618,-0.24211l0 -0.954366c0,-0.0943307 0.0385394,-0.180035 0.100618,-0.24211 0.0620748,-0.0620748 0.14778,-0.100618 0.24211,-0.100618z"/>
   <path id="_275479392" class="fil1" d="M6.49365 6.05962c-0.0511654,0.0733504 -0.116087,0.147146 -0.177543,0.211831 -0.141961,0.149417 -0.304795,0.283732 -0.482287,0.388783 -0.228177,0.135059 -0.479134,0.220394 -0.745295,0.231791 -0.339972,0.0145591 -0.65887,-0.0936811 -0.945197,-0.272004 -0.0722913,-0.0450197 -0.0946811,-0.141106 -0.049685,-0.213425 0.0450039,-0.0723386 0.141154,-0.0947402 0.213476,-0.0496969 0.234315,0.145929 0.49435,0.235555 0.772744,0.222295 0.217579,-0.0103661 0.422224,-0.0823858 0.608185,-0.193579 0.149457,-0.0893701 0.286689,-0.203661 0.406232,-0.330102 0.0507205,-0.0536535 0.103201,-0.11361 0.145874,-0.174169 0.049248,-0.0699016 0.145902,-0.086748 0.21585,-0.0375433 0.0699843,0.0492205 0.0868543,0.146 0.0376457,0.215819z"/>
   <path id="_275479272" class="fil2" d="M4.18203 6.55084l0.0494331 -0.0856142c0.0038622,-0.00668898 0.0045748,-0.0145787 0.00261811,-0.0218819 -0.00166535,-0.00620472 -0.0051378,-0.0117874 -0.0101181,-0.0156575 -0.00109449,-0.000562992 -0.00217717,-0.00114961 -0.00324803,-0.00176772l0 -0.000216535 -0.331421 -0.191346c-0.00668504,-0.0038622 -0.0145748,-0.0045748 -0.021878,-0.00262205 -0.00639764,0.00170866 -0.012189,0.00550787 -0.0161614,0.0110591 -0.000413386,0.000771654 -0.000830709,0.00154331 -0.00127165,0.00230709l-0.00015748 -9.05512e-005 -5.51181e-005 9.05512e-005 -0.000129921 -7.48031e-005 -0.0457913 0.079311c-0.000996063,0.00215748 -0.00209055,0.0042874 -0.00329921,0.00638976l-0.000212598 -3.93701e-006c-0.00385827,0.0066811 -0.0045748,0.0145748 -0.00261811,0.021878 0.00166535,0.00620866 0.0051378,0.0117874 0.0101181,0.0156575 0.00109055,0.000562992 0.00217717,0.00115354 0.00324803,0.00177165l0 0.000212598 0.331421 0.191346c0.00668504,0.0038622 0.0145748,0.0045748 0.021878,0.00261811 0.00724409,-0.00193701 0.0137126,-0.00655906 0.0176457,-0.0133661z"/>
   <path id="_275479104" class="fil2" d="M4.36536 6.54278l-0.0494331 0.0856181c-0.0253071,0.0438307 -0.0661496,0.0733031 -0.111551,0.0854685 -0.0453425,0.0121496 -0.0954685,0.007 -0.139425,-0.018374l-0.331327 -0.191295 -9.05512e-005 0.000161417c-0.0028189,-0.00162598 -0.00548819,-0.00340157 -0.00801969,-0.00531102 -0.0394843,-0.0256102 -0.0660984,-0.0640866 -0.0774488,-0.106453 -0.0121457,-0.0453071 -0.00701575,-0.0954016 0.0183228,-0.139335l-0.000161417 -9.44882e-005c0.0012126,-0.00209449 0.00250787,-0.00411024 0.00387795,-0.00604724l0.0457638 -0.0792677 -0.000212598 -0.000299213c0.00116929,-0.00202362 0.00241732,-0.00396457 0.00373228,-0.00584252 0.0254803,-0.0406063 0.0646811,-0.0680118 0.108035,-0.079626 0.0453425,-0.0121457 0.0954685,-0.007 0.139425,0.018374l0.331327 0.191295 9.05512e-005 -0.000161417c0.0028189,0.00162598 0.00548819,0.00340157 0.00801969,0.00531102 0.0394764,0.0256102 0.0660984,0.0640866 0.0774488,0.106453 0.0121535,0.0453386 0.00700394,0.0954685 -0.018374,0.139425z"/>
  </g>
 </g>
</svg>
